<?xml version="1.0" encoding="UTF-8" standalone="no"?>
<!DOCTYPE svg PUBLIC "-//W3C//DTD SVG 1.1//EN"
 "http://www.w3.org/Graphics/SVG/1.1/DTD/svg11.dtd">
<!-- Generated by graphviz version 2.38.0 (20140413.2041)
 -->
<!-- Title: %3 Pages: 1 -->
<svg width="650pt" height="359pt"
 viewBox="0.00 0.00 649.74 359.00" xmlns="http://www.w3.org/2000/svg" xmlns:xlink="http://www.w3.org/1999/xlink">
<g id="graph0" class="graph" transform="scale(1 1) rotate(0) translate(4 355)">
<title>%3</title>
<polygon fill="white" stroke="none" points="-4,4 -4,-355 645.736,-355 645.736,4 -4,4"/>
<!-- STOPPED -->
<g id="node1" class="node"><title>STOPPED</title>
<ellipse fill="none" stroke="black" cx="449.736" cy="-333" rx="48.9926" ry="18"/>
<text text-anchor="middle" x="449.736" y="-329.3" font-family="Times,serif" font-size="14.00">STOPPED</text>
</g>
<!-- UPLOAD_SCHEDULED -->
<g id="node2" class="node"><title>UPLOAD_SCHEDULED</title>
<ellipse fill="none" stroke="black" cx="266.736" cy="-231" rx="102.882" ry="18"/>
<text text-anchor="middle" x="266.736" y="-227.3" font-family="Times,serif" font-size="14.00">UPLOAD_SCHEDULED</text>
</g>
<!-- STOPPED&#45;&gt;UPLOAD_SCHEDULED -->
<g id="edge1" class="edge"><title>STOPPED&#45;&gt;UPLOAD_SCHEDULED</title>
<path fill="none" stroke="black" d="M423.517,-317.672C392.671,-300.817 341.172,-272.675 305.662,-253.271"/>
<polygon fill="black" stroke="black" points="307.006,-250.017 296.552,-248.293 303.649,-256.159 307.006,-250.017"/>
<text text-anchor="middle" x="434.236" y="-285.8" font-family="Times,serif" font-size="14.00">start</text>
<text text-anchor="middle" x="434.236" y="-270.8" font-family="Times,serif" font-size="14.00">(schedule upload)</text>
</g>
<!-- UPLOADING -->
<g id="node3" class="node"><title>UPLOADING</title>
<ellipse fill="none" stroke="black" cx="215.736" cy="-109.5" rx="61.99" ry="18"/>
<text text-anchor="middle" x="215.736" y="-105.8" font-family="Times,serif" font-size="14.00">UPLOADING</text>
</g>
<!-- UPLOAD_SCHEDULED&#45;&gt;UPLOADING -->
<g id="edge2" class="edge"><title>UPLOAD_SCHEDULED&#45;&gt;UPLOADING</title>
<path fill="none" stroke="black" d="M164.23,-229.375C101.673,-226.565 29.9483,-218.151 9.73622,-195 -3.41718,-179.934 -3.00492,-165.416 9.73622,-150 26.8718,-129.267 92.8298,-119.309 145.556,-114.594"/>
<polygon fill="black" stroke="black" points="145.9,-118.077 155.569,-113.746 145.31,-111.102 145.9,-118.077"/>
<text text-anchor="middle" x="80.7362" y="-183.8" font-family="Times,serif" font-size="14.00">add event, batch full</text>
<text text-anchor="middle" x="80.7362" y="-168.8" font-family="Times,serif" font-size="14.00">(upload)</text>
<text text-anchor="middle" x="80.7362" y="-153.8" font-family="Times,serif" font-size="14.00">(cancel scheduled upload)</text>
</g>
<!-- UPLOAD_SCHEDULED&#45;&gt;UPLOADING -->
<g id="edge3" class="edge"><title>UPLOAD_SCHEDULED&#45;&gt;UPLOADING</title>
<path fill="none" stroke="black" d="M201.898,-216.797C191.198,-211.725 181.429,-204.708 174.736,-195 163.383,-178.534 166.911,-168.405 174.736,-150 177.274,-144.031 181.205,-138.526 185.648,-133.64"/>
<polygon fill="black" stroke="black" points="188.243,-135.998 192.925,-126.494 183.338,-131.004 188.243,-135.998"/>
<text text-anchor="middle" x="209.736" y="-176.3" font-family="Times,serif" font-size="14.00">interval over</text>
<text text-anchor="middle" x="209.736" y="-161.3" font-family="Times,serif" font-size="14.00">(upload)</text>
</g>
<!-- UPLOADING_BEFORE_STOP -->
<g id="node4" class="node"><title>UPLOADING_BEFORE_STOP</title>
<ellipse fill="none" stroke="black" cx="378.736" cy="-18" rx="126.178" ry="18"/>
<text text-anchor="middle" x="378.736" y="-14.3" font-family="Times,serif" font-size="14.00">UPLOADING_BEFORE_STOP</text>
</g>
<!-- UPLOAD_SCHEDULED&#45;&gt;UPLOADING_BEFORE_STOP -->
<g id="edge4" class="edge"><title>UPLOAD_SCHEDULED&#45;&gt;UPLOADING_BEFORE_STOP</title>
<path fill="none" stroke="black" d="M331.926,-217.064C343.412,-211.974 354.114,-204.881 361.736,-195 395.013,-151.861 390.32,-83.9441 384.311,-46.34"/>
<polygon fill="black" stroke="black" points="387.698,-45.3909 382.528,-36.1431 380.803,-46.5965 387.698,-45.3909"/>
<text text-anchor="middle" x="459.736" y="-120.8" font-family="Times,serif" font-size="14.00">stop</text>
<text text-anchor="middle" x="459.736" y="-105.8" font-family="Times,serif" font-size="14.00">(upload)</text>
<text text-anchor="middle" x="459.736" y="-90.8" font-family="Times,serif" font-size="14.00">(cancel scheduled upload)</text>
</g>
<!-- UPLOADING&#45;&gt;UPLOAD_SCHEDULED -->
<g id="edge6" class="edge"><title>UPLOADING&#45;&gt;UPLOAD_SCHEDULED</title>
<path fill="none" stroke="black" d="M230.189,-127.317C235.372,-134.024 240.881,-142.036 244.736,-150 252.793,-166.644 258.302,-186.713 261.792,-202.586"/>
<polygon fill="black" stroke="black" points="258.452,-203.72 263.892,-212.811 265.309,-202.311 258.452,-203.72"/>
<text text-anchor="middle" x="309.236" y="-176.3" font-family="Times,serif" font-size="14.00">upload finished</text>
<text text-anchor="middle" x="309.236" y="-161.3" font-family="Times,serif" font-size="14.00">(schedule upload)</text>
</g>
<!-- UPLOADING&#45;&gt;UPLOADING_BEFORE_STOP -->
<g id="edge5" class="edge"><title>UPLOADING&#45;&gt;UPLOADING_BEFORE_STOP</title>
<path fill="none" stroke="black" d="M243.387,-93.3175C269.81,-78.8093 309.901,-56.796 339.599,-40.4897"/>
<polygon fill="black" stroke="black" points="341.374,-43.508 348.455,-35.627 338.005,-37.3721 341.374,-43.508"/>
<text text-anchor="middle" x="324.236" y="-57.8" font-family="Times,serif" font-size="14.00">stop</text>
</g>
<!-- UPLOADING_BEFORE_STOP&#45;&gt;STOPPED -->
<g id="edge7" class="edge"><title>UPLOADING_BEFORE_STOP&#45;&gt;STOPPED</title>
<path fill="none" stroke="black" d="M452.855,-32.6774C483.617,-42.4041 516.363,-58.9484 534.736,-87 587.194,-167.09 536.626,-215.286 486.736,-297 484.041,-301.415 480.645,-305.64 477.01,-309.531"/>
<polygon fill="black" stroke="black" points="474.53,-307.061 469.846,-316.564 479.433,-312.056 474.53,-307.061"/>
<text text-anchor="middle" x="599.236" y="-168.8" font-family="Times,serif" font-size="14.00">upload finished</text>
</g>
<!-- UPLOADING_BEFORE_STOP&#45;&gt;UPLOADING_BEFORE_STOP -->
<g id="edge8" class="edge"><title>UPLOADING_BEFORE_STOP&#45;&gt;UPLOADING_BEFORE_STOP</title>
<path fill="none" stroke="black" d="M494.626,-25.106C511.474,-23.978 522.825,-21.6094 522.825,-18 522.825,-15.1802 515.897,-13.1176 504.832,-11.8124"/>
<polygon fill="black" stroke="black" points="504.899,-8.30433 494.626,-10.894 504.272,-15.2762 504.899,-8.30433"/>
<text text-anchor="middle" x="558.325" y="-21.8" font-family="Times,serif" font-size="14.00">add event</text>
<text text-anchor="middle" x="558.325" y="-6.8" font-family="Times,serif" font-size="14.00">(throw error)</text>
</g>
</g>
</svg>
