<?xml version="1.0" encoding="UTF-8" standalone="no"?>
<!DOCTYPE svg PUBLIC "-//W3C//DTD SVG 1.1//EN"
 "http://www.w3.org/Graphics/SVG/1.1/DTD/svg11.dtd">
<!-- Generated by graphviz version 2.38.0 (20140413.2041)
 -->
<!-- Title: %3 Pages: 1 -->
<svg width="650pt" height="446pt"
 viewBox="0.00 0.00 649.74 446.00" xmlns="http://www.w3.org/2000/svg" xmlns:xlink="http://www.w3.org/1999/xlink">
<g id="graph0" class="graph" transform="scale(1 1) rotate(0) translate(4 442)">
<title>%3</title>
<polygon fill="white" stroke="none" points="-4,4 -4,-442 645.736,-442 645.736,4 -4,4"/>
<!-- STOPPED -->
<g id="node1" class="node"><title>STOPPED</title>
<ellipse fill="none" stroke="black" cx="449.736" cy="-420" rx="48.9926" ry="18"/>
<text text-anchor="middle" x="449.736" y="-416.3" font-family="Times,serif" font-size="14.00">STOPPED</text>
</g>
<!-- WAITING -->
<g id="node2" class="node"><title>WAITING</title>
<ellipse fill="none" stroke="black" cx="266.736" cy="-318" rx="50.0912" ry="18"/>
<text text-anchor="middle" x="266.736" y="-314.3" font-family="Times,serif" font-size="14.00">WAITING</text>
</g>
<!-- STOPPED&#45;&gt;WAITING -->
<g id="edge1" class="edge"><title>STOPPED&#45;&gt;WAITING</title>
<path fill="none" stroke="black" d="M423.517,-404.672C391.673,-387.271 337.818,-357.843 302.267,-338.416"/>
<polygon fill="black" stroke="black" points="303.658,-335.187 293.204,-333.463 300.301,-341.33 303.658,-335.187"/>
<text text-anchor="middle" x="434.236" y="-372.8" font-family="Times,serif" font-size="14.00">start</text>
<text text-anchor="middle" x="434.236" y="-357.8" font-family="Times,serif" font-size="14.00">(schedule upload)</text>
</g>
<!-- UPLOADING -->
<g id="node3" class="node"><title>UPLOADING</title>
<ellipse fill="none" stroke="black" cx="215.736" cy="-196.5" rx="61.99" ry="18"/>
<text text-anchor="middle" x="215.736" y="-192.8" font-family="Times,serif" font-size="14.00">UPLOADING</text>
</g>
<!-- WAITING&#45;&gt;UPLOADING -->
<g id="edge2" class="edge"><title>WAITING&#45;&gt;UPLOADING</title>
<path fill="none" stroke="black" d="M216.474,-317.638C149.407,-317.289 36.0194,-312.105 9.73622,-282 -3.41718,-266.934 -3.00492,-252.416 9.73622,-237 26.8718,-216.267 92.8298,-206.309 145.556,-201.594"/>
<polygon fill="black" stroke="black" points="145.9,-205.077 155.569,-200.746 145.31,-198.102 145.9,-205.077"/>
<text text-anchor="middle" x="80.7362" y="-270.8" font-family="Times,serif" font-size="14.00">add event, batch full</text>
<text text-anchor="middle" x="80.7362" y="-255.8" font-family="Times,serif" font-size="14.00">(upload)</text>
<text text-anchor="middle" x="80.7362" y="-240.8" font-family="Times,serif" font-size="14.00">(cancel scheduled upload)</text>
</g>
<!-- WAITING&#45;&gt;UPLOADING -->
<g id="edge3" class="edge"><title>WAITING&#45;&gt;UPLOADING</title>
<path fill="none" stroke="black" d="M220.547,-310.667C203.224,-305.798 185.213,-297.195 174.736,-282 163.383,-265.534 166.911,-255.405 174.736,-237 177.274,-231.031 181.205,-225.526 185.648,-220.64"/>
<polygon fill="black" stroke="black" points="188.243,-222.998 192.925,-213.494 183.338,-218.004 188.243,-222.998"/>
<text text-anchor="middle" x="209.736" y="-263.3" font-family="Times,serif" font-size="14.00">interval over</text>
<text text-anchor="middle" x="209.736" y="-248.3" font-family="Times,serif" font-size="14.00">(upload)</text>
</g>
<!-- STOPPING -->
<g id="node4" class="node"><title>STOPPING</title>
<ellipse fill="none" stroke="black" cx="378.736" cy="-105" rx="52.7911" ry="18"/>
<text text-anchor="middle" x="378.736" y="-101.3" font-family="Times,serif" font-size="14.00">STOPPING</text>
</g>
<!-- WAITING&#45;&gt;STOPPING -->
<g id="edge4" class="edge"><title>WAITING&#45;&gt;STOPPING</title>
<path fill="none" stroke="black" d="M312.667,-310.771C330.726,-305.924 349.927,-297.309 361.736,-282 395.013,-238.861 390.32,-170.944 384.311,-133.34"/>
<polygon fill="black" stroke="black" points="387.698,-132.391 382.528,-123.143 380.803,-133.596 387.698,-132.391"/>
<text text-anchor="middle" x="459.736" y="-207.8" font-family="Times,serif" font-size="14.00">stop</text>
<text text-anchor="middle" x="459.736" y="-192.8" font-family="Times,serif" font-size="14.00">(upload)</text>
<text text-anchor="middle" x="459.736" y="-177.8" font-family="Times,serif" font-size="14.00">(cancel scheduled upload)</text>
</g>
<!-- UPLOADING&#45;&gt;WAITING -->
<g id="edge6" class="edge"><title>UPLOADING&#45;&gt;WAITING</title>
<path fill="none" stroke="black" d="M230.189,-214.317C235.372,-221.024 240.881,-229.036 244.736,-237 252.793,-253.644 258.302,-273.713 261.792,-289.586"/>
<polygon fill="black" stroke="black" points="258.452,-290.72 263.892,-299.811 265.309,-289.311 258.452,-290.72"/>
<text text-anchor="middle" x="309.236" y="-263.3" font-family="Times,serif" font-size="14.00">upload finished</text>
<text text-anchor="middle" x="309.236" y="-248.3" font-family="Times,serif" font-size="14.00">(schedule upload)</text>
</g>
<!-- UPLOADING&#45;&gt;STOPPING -->
<g id="edge5" class="edge"><title>UPLOADING&#45;&gt;STOPPING</title>
<path fill="none" stroke="black" d="M243.387,-180.318C270.88,-165.222 313.171,-142.001 343.154,-125.538"/>
<polygon fill="black" stroke="black" points="344.953,-128.543 352.034,-120.662 341.584,-122.407 344.953,-128.543"/>
<text text-anchor="middle" x="324.236" y="-144.8" font-family="Times,serif" font-size="14.00">stop</text>
</g>
<!-- STOPPING&#45;&gt;STOPPED -->
<g id="edge7" class="edge"><title>STOPPING&#45;&gt;STOPPED</title>
<path fill="none" stroke="black" d="M426.555,-112.726C463.035,-120.64 510.94,-137.669 534.736,-174 587.194,-254.09 536.626,-302.286 486.736,-384 484.041,-388.415 480.645,-392.64 477.01,-396.531"/>
<polygon fill="black" stroke="black" points="474.53,-394.061 469.846,-403.564 479.433,-399.056 474.53,-394.061"/>
<text text-anchor="middle" x="599.236" y="-255.8" font-family="Times,serif" font-size="14.00">upload finished</text>
</g>
<!-- INVALID/ERROR -->
<g id="node5" class="node"><title>INVALID/ERROR</title>
<ellipse fill="none" stroke="black" cx="378.736" cy="-18" rx="79.0865" ry="18"/>
<text text-anchor="middle" x="378.736" y="-14.3" font-family="Times,serif" font-size="14.00">INVALID/ERROR</text>
</g>
<!-- STOPPING&#45;&gt;INVALID/ERROR -->
<g id="edge8" class="edge"><title>STOPPING&#45;&gt;INVALID/ERROR</title>
<path fill="none" stroke="black" d="M378.736,-86.799C378.736,-75.1626 378.736,-59.5479 378.736,-46.2368"/>
<polygon fill="black" stroke="black" points="382.236,-46.1754 378.736,-36.1754 375.236,-46.1755 382.236,-46.1754"/>
<text text-anchor="middle" x="405.236" y="-57.8" font-family="Times,serif" font-size="14.00">add event</text>
</g>
</g>
</svg>
